<svg xmlns="http://www.w3.org/2000/svg" viewBox="0 0 512 512" width="512" height="512">
      <rect width="512" height="512" fill="#0d9488"/>
      <circle cx="256" cy="256" r="163.84" fill="none" stroke="#f0fdfa" stroke-width="20.48"/>
      <circle cx="256" cy="256" r="57.343999999999994" fill="none" stroke="#f0fdfa" stroke-width="17.92"/>
      <line x1="256" y1="198.656" x2="256" y2="116.73599999999999" stroke="#f0fdfa" stroke-width="17.92" stroke-linecap="round"/><line x1="296.54833126036135" y1="215.45166873963862" x2="354.47451877516335" y2="157.52548122483665" stroke="#f0fdfa" stroke-width="17.92" stroke-linecap="round"/><line x1="313.344" y1="256" x2="395.264" y2="256" stroke="#f0fdfa" stroke-width="17.92" stroke-linecap="round"/><line x1="296.54833126036135" y1="296.54833126036135" x2="354.47451877516335" y2="354.47451877516335" stroke="#f0fdfa" stroke-width="17.92" stroke-linecap="round"/><line x1="256" y1="313.344" x2="256" y2="395.264" stroke="#f0fdfa" stroke-width="17.92" stroke-linecap="round"/><line x1="215.45166873963862" y1="296.54833126036135" x2="157.52548122483665" y2="354.47451877516335" stroke="#f0fdfa" stroke-width="17.92" stroke-linecap="round"/><line x1="198.656" y1="256" x2="116.73599999999999" y2="256" stroke="#f0fdfa" stroke-width="17.92" stroke-linecap="round"/><line x1="215.45166873963862" y1="215.45166873963862" x2="157.5254812248366" y2="157.52548122483665" stroke="#f0fdfa" stroke-width="17.92" stroke-linecap="round"/>
      <circle cx="256" cy="92.16" r="24.576" fill="#f0fdfa"/><circle cx="371.852375029604" cy="140.14762497039607" r="24.576" fill="#f0fdfa"/><circle cx="419.84000000000003" cy="256" r="24.576" fill="#f0fdfa"/><circle cx="371.852375029604" cy="371.85237502960393" r="24.576" fill="#f0fdfa"/><circle cx="256" cy="419.84000000000003" r="24.576" fill="#f0fdfa"/><circle cx="140.14762497039607" cy="371.852375029604" r="24.576" fill="#f0fdfa"/><circle cx="92.16" cy="256" r="24.576" fill="#f0fdfa"/><circle cx="140.147624970396" cy="140.14762497039607" r="24.576" fill="#f0fdfa"/>
      <circle cx="256" cy="256" r="30.72" fill="#f0fdfa"/>
    </svg>