<svg xmlns="http://www.w3.org/2000/svg" viewBox="0 0 192 192" width="192" height="192">
      <rect width="192" height="192" fill="#0d9488"/>
      <circle cx="96" cy="96" r="61.44" fill="none" stroke="#f0fdfa" stroke-width="7.68"/>
      <circle cx="96" cy="96" r="21.503999999999998" fill="none" stroke="#f0fdfa" stroke-width="6.720000000000001"/>
      <line x1="96" y1="74.49600000000001" x2="96" y2="43.776" stroke="#f0fdfa" stroke-width="6.720000000000001" stroke-linecap="round"/><line x1="111.20562422263552" y1="80.79437577736448" x2="132.92794454068627" y2="59.072055459313745" stroke="#f0fdfa" stroke-width="6.720000000000001" stroke-linecap="round"/><line x1="117.50399999999999" y1="96" x2="148.224" y2="96" stroke="#f0fdfa" stroke-width="6.720000000000001" stroke-linecap="round"/><line x1="111.20562422263552" y1="111.20562422263552" x2="132.92794454068627" y2="132.92794454068627" stroke="#f0fdfa" stroke-width="6.720000000000001" stroke-linecap="round"/><line x1="96" y1="117.50399999999999" x2="96" y2="148.224" stroke="#f0fdfa" stroke-width="6.720000000000001" stroke-linecap="round"/><line x1="80.79437577736448" y1="111.20562422263552" x2="59.072055459313745" y2="132.92794454068627" stroke="#f0fdfa" stroke-width="6.720000000000001" stroke-linecap="round"/><line x1="74.49600000000001" y1="96" x2="43.776" y2="96" stroke="#f0fdfa" stroke-width="6.720000000000001" stroke-linecap="round"/><line x1="80.79437577736448" y1="80.79437577736448" x2="59.07205545931374" y2="59.072055459313745" stroke="#f0fdfa" stroke-width="6.720000000000001" stroke-linecap="round"/>
      <circle cx="96" cy="34.56" r="9.216" fill="#f0fdfa"/><circle cx="139.4446406361015" cy="52.555359363898525" r="9.216" fill="#f0fdfa"/><circle cx="157.44" cy="96" r="9.216" fill="#f0fdfa"/><circle cx="139.4446406361015" cy="139.44464063610147" r="9.216" fill="#f0fdfa"/><circle cx="96" cy="157.44" r="9.216" fill="#f0fdfa"/><circle cx="52.555359363898525" cy="139.4446406361015" r="9.216" fill="#f0fdfa"/><circle cx="34.56" cy="96.00000000000001" r="9.216" fill="#f0fdfa"/><circle cx="52.55535936389851" cy="52.555359363898525" r="9.216" fill="#f0fdfa"/>
      <circle cx="96" cy="96" r="11.52" fill="#f0fdfa"/>
    </svg>